<svg width="60" height="60" viewBox="0 0 60 60" fill="none" xmlns="http://www.w3.org/2000/svg">
<path fill-rule="evenodd" clip-rule="evenodd" d="M8.66 8.66C5 12.325 5 18.215 5 30C5 41.785 5 47.6775 8.66 51.3375C12.325 55 18.215 55 30 55C41.785 55 47.6775 55 51.3375 51.3375C55 47.68 55 41.785 55 30C55 18.215 55 12.3225 51.3375 8.66C47.68 5 41.785 5 30 5C18.215 5 12.3225 5 8.66 8.66ZM16.06 23.8C16.3783 23.4182 16.8353 23.1785 17.3303 23.1335C17.8254 23.0885 18.318 23.2419 18.7 23.56L19.3925 24.135C20.905 25.395 22.1925 26.4675 23.0825 27.455C24.03 28.505 24.7675 29.7075 24.7675 31.25C24.7675 32.7925 24.03 33.9975 23.0825 35.045C22.1925 36.0325 20.905 37.105 19.3925 38.365L18.7 38.94C18.5118 39.1046 18.2926 39.2299 18.0553 39.3086C17.818 39.3873 17.5673 39.4177 17.3181 39.398C17.0689 39.3784 16.8261 39.3091 16.604 39.1942C16.3819 39.0793 16.1851 38.9212 16.025 38.7292C15.865 38.5371 15.7449 38.3149 15.672 38.0758C15.5991 37.8367 15.5747 37.5854 15.6003 37.3367C15.6259 37.088 15.701 36.8469 15.8212 36.6276C15.9413 36.4084 16.1041 36.2154 16.3 36.06L16.885 35.5725C18.5325 34.1975 19.61 33.2975 20.3 32.5325C20.955 31.8075 21.0175 31.465 21.0175 31.25C21.0175 31.035 20.955 30.695 20.3 29.9675C19.6075 29.2025 18.5325 28.3 16.885 26.9275L16.3 26.44C15.9182 26.1217 15.6785 25.6647 15.6335 25.1697C15.5885 24.6746 15.7419 24.182 16.06 23.8ZM44.375 37.5C44.375 37.9973 44.1775 38.4742 43.8258 38.8258C43.4742 39.1775 42.9973 39.375 42.5 39.375H30C29.5027 39.375 29.0258 39.1775 28.6742 38.8258C28.3225 38.4742 28.125 37.9973 28.125 37.5C28.125 37.0027 28.3225 36.5258 28.6742 36.1742C29.0258 35.8225 29.5027 35.625 30 35.625H42.5C42.9973 35.625 43.4742 35.8225 43.8258 36.1742C44.1775 36.5258 44.375 37.0027 44.375 37.5Z" fill="#F9004D"/>
</svg>
