<svg width="54" height="54" viewBox="0 0 54 54" fill="none" xmlns="http://www.w3.org/2000/svg">
<mask id="mask0_3289_255" style="mask-type:luminance" maskUnits="userSpaceOnUse" x="0" y="0" width="54" height="55">
<path d="M28.25 50.4848H5.75C4.75544 50.4848 3.80161 50.006 3.09835 49.1535C2.39509 48.3011 2 47.1449 2 45.9394V6.54545C2 5.33993 2.39509 4.18377 3.09835 3.33133C3.80161 2.47889 4.75544 2 5.75 2H48.25C49.2446 2 50.1984 2.47889 50.9016 3.33133C51.6049 4.18377 52 5.33993 52 6.54545V27.6682" stroke="white" stroke-width="4" stroke-linecap="round" stroke-linejoin="round"/>
<path d="M2 6.54545C2 5.33993 2.39509 4.18377 3.09835 3.33133C3.80161 2.47889 4.75544 2 5.75 2H48.25C49.2446 2 50.1984 2.47889 50.9016 3.33133C51.6049 4.18377 52 5.33993 52 6.54545V20.1818H2V6.54545Z" fill="#555555" stroke="white" stroke-width="4"/>
<path d="M37 42.9093H52M44.5 33.8184V52.0002" stroke="white" stroke-width="4" stroke-linecap="round" stroke-linejoin="round"/>
<path d="M7 11.091C7 9.41744 8.11929 8.06073 9.5 8.06073C10.8807 8.06073 12 9.41744 12 11.091C12 12.7646 10.8807 14.1213 9.5 14.1213C8.11929 14.1213 7 12.7646 7 11.091Z" fill="white"/>
<path d="M14.5 11.091C14.5 9.41744 15.6193 8.06073 17 8.06073C18.3807 8.06073 19.5 9.41744 19.5 11.091C19.5 12.7646 18.3807 14.1213 17 14.1213C15.6193 14.1213 14.5 12.7646 14.5 11.091Z" fill="white"/>
</mask>
<g mask="url(#mask0_3289_255)">
<path d="M-3 -10.1213H57V62.6059H-3V-10.1213Z" fill="#F9004D"/>
</g>
</svg>
