<svg width="55" height="49" viewBox="0 0 55 49" fill="none" xmlns="http://www.w3.org/2000/svg">
<path d="M24.0625 49C24.0625 49 20.625 49 20.625 44.9167C20.625 40.8333 24.0625 28.5833 37.8125 28.5833C51.5625 28.5833 55 40.8333 55 44.9167C55 49 51.5625 49 51.5625 49H24.0625ZM37.8125 24.5C40.5475 24.5 43.1706 23.2094 45.1045 20.9121C47.0385 18.6147 48.125 15.4989 48.125 12.25C48.125 9.0011 47.0385 5.88526 45.1045 3.58794C43.1706 1.29062 40.5475 0 37.8125 0C35.0775 0 32.4544 1.29062 30.5205 3.58794C28.5865 5.88526 27.5 9.0011 27.5 12.25C27.5 15.4989 28.5865 18.6147 30.5205 20.9121C32.4544 23.2094 35.0775 24.5 37.8125 24.5ZM17.93 49C17.4206 47.7252 17.1665 46.3276 17.1875 44.9167C17.1875 39.3838 19.525 33.6875 23.8425 29.7267C21.6878 28.9363 19.4424 28.5505 17.1875 28.5833C3.4375 28.5833 0 40.8333 0 44.9167C0 49 3.4375 49 3.4375 49H17.93ZM15.4688 24.5C17.748 24.5 19.9338 23.4245 21.5454 21.51C23.1571 19.5956 24.0625 16.9991 24.0625 14.2917C24.0625 11.5842 23.1571 8.98772 21.5454 7.07329C19.9338 5.15885 17.748 4.08333 15.4688 4.08333C13.1895 4.08333 11.0037 5.15885 9.39205 7.07329C7.78041 8.98772 6.875 11.5842 6.875 14.2917C6.875 16.9991 7.78041 19.5956 9.39205 21.51C11.0037 23.4245 13.1895 24.5 15.4688 24.5Z" fill="#F9004D"/>
</svg>
