<svg width="127" height="127" viewBox="0 0 127 127" fill="none" xmlns="http://www.w3.org/2000/svg">
<path d="M23.4236 107.954L14.5098 7.9375H112.49L103.565 107.938L63.4405 119.062L23.4236 107.954Z" fill="#1572B6"/>
<path d="M63.5 110.562L95.9247 101.572L103.553 16.1172H63.5V110.562Z" fill="#33A9DC"/>
<path d="M63.5 52.3517H79.7322L80.8514 39.7906H63.5V27.5232H94.2578L93.9641 30.8133L90.9518 64.6191H63.5V52.3517Z" fill="white"/>
<path d="M63.5755 84.209L63.52 84.2249L49.8595 80.5339L48.9864 70.751H36.6714L38.3899 90.0113L63.516 96.9884L63.5755 96.9725V84.209Z" fill="#EBEBEB"/>
<path d="M78.6884 64.0994L77.212 80.526L63.5317 84.217V96.9805L88.6777 90.0113L88.8643 87.9397L90.9955 64.0994H78.6884Z" fill="white"/>
<path d="M63.5435 27.5232V39.7906H33.9128L33.6668 37.0323L33.1072 30.8133L32.8135 27.5232H63.5435ZM63.4999 52.3517V64.6191H50.0101L49.764 61.8608L49.2084 55.6418L48.9147 52.3517H63.4999Z" fill="#EBEBEB"/>
</svg>
