<svg width="48" height="47" viewBox="0 0 48 47" fill="none" xmlns="http://www.w3.org/2000/svg">
<path d="M23.9994 0.666992C20.9352 0.666992 17.901 1.27053 15.0701 2.44314C12.2391 3.61575 9.66689 5.33447 7.50019 7.50117C3.12434 11.877 0.666016 17.8119 0.666016 24.0003C0.666016 34.3137 7.36268 43.0637 16.626 46.167C17.7927 46.3537 18.166 45.6303 18.166 45.0003V41.057C11.7027 42.457 10.326 37.9303 10.326 37.9303C9.25268 35.2237 7.73602 34.5003 7.73602 34.5003C5.61268 33.0537 7.89935 33.1003 7.89935 33.1003C10.2327 33.2637 11.4693 35.5037 11.4693 35.5037C13.4994 39.0503 16.9293 38.0003 18.2593 37.4403C18.4694 35.9237 19.076 34.897 19.7294 34.3137C14.5493 33.7303 9.11268 31.7237 9.11268 22.8337C9.11268 20.2437 9.99935 18.167 11.516 16.5103C11.2827 15.927 10.466 13.5003 11.7493 10.3503C11.7493 10.3503 13.7093 9.72033 18.166 12.7303C20.0093 12.217 22.016 11.9603 23.9994 11.9603C25.9827 11.9603 27.9894 12.217 29.8327 12.7303C34.2894 9.72033 36.2494 10.3503 36.2494 10.3503C37.5327 13.5003 36.716 15.927 36.4827 16.5103C37.9994 18.167 38.886 20.2437 38.886 22.8337C38.886 31.747 33.426 33.707 28.2227 34.2903C29.0627 35.0137 29.8327 36.437 29.8327 38.607V45.0003C29.8327 45.6303 30.206 46.377 31.396 46.167C40.6594 43.0403 47.3327 34.3137 47.3327 24.0003C47.3327 20.9361 46.7292 17.902 45.5565 15.071C44.3839 12.2401 42.6652 9.66787 40.4985 7.50117C38.3318 5.33447 35.7596 3.61575 32.9286 2.44314C30.0977 1.27053 27.0635 0.666992 23.9994 0.666992Z" fill="white"/>
</svg>
