<svg width="140" height="140" viewBox="0 0 140 140" fill="none" xmlns="http://www.w3.org/2000/svg">
<path d="M0 70C0 90.3361 31.3403 106.823 70 106.823C108.66 106.823 140 90.3361 140 70C140 49.6639 108.659 33.1768 70 33.1768C31.3414 33.1768 0 49.6639 0 70Z" fill="url(#paint0_radial_3597_429)"/>
<path d="M70 104.089C107.149 104.089 137.266 88.8257 137.266 70C137.266 51.1722 107.149 35.9111 70 35.9111C32.8508 35.9111 2.73438 51.1722 2.73438 70C2.73438 88.8257 32.8508 104.089 70 104.089Z" fill="#777BB3"/>
<path d="M38.0323 74.2263C41.0872 74.2263 43.3665 73.6631 44.8092 72.5529C46.2376 71.4526 47.2231 69.5484 47.7405 66.8928C48.2217 64.4099 48.038 62.6774 47.1936 61.7412C46.3317 60.7853 44.4669 60.3007 41.6516 60.3007H36.7691L34.0642 74.2263H38.0323ZM22.0647 91.3796C21.9527 91.3795 21.8421 91.3545 21.7408 91.3066C21.6396 91.2586 21.5502 91.1889 21.4791 91.1023C21.408 91.0157 21.357 90.9145 21.3296 90.8059C21.3023 90.6973 21.2993 90.5839 21.3209 90.474L28.4926 53.5731C28.5265 53.4006 28.6192 53.2451 28.7548 53.1333C28.8904 53.0214 29.0606 52.96 29.2364 52.9595H44.6955C49.5539 52.9595 53.1698 54.2785 55.4437 56.8806C57.7275 59.4946 58.4341 63.1521 57.5405 67.747C57.1762 69.6184 56.5506 71.3564 55.6811 72.9139C54.7762 74.516 53.6212 75.9634 52.2598 77.2013C50.5853 78.7676 48.6898 79.9051 46.6303 80.5734C44.6047 81.234 42.0015 81.5687 38.8975 81.5687H32.6369L30.8497 90.7649C30.8159 90.938 30.7231 91.094 30.587 91.2061C30.4509 91.3183 30.2801 91.3796 30.1037 91.3796H22.0647Z" fill="black"/>
<path d="M37.3952 61.0597H41.651C45.0493 61.0597 46.2295 61.8056 46.6309 62.2508C47.2948 62.988 47.4216 64.5444 46.9929 66.7483C46.5127 69.2169 45.6224 70.968 44.346 71.9502C43.0401 72.9564 40.9138 73.4661 38.0318 73.4661H34.9846L37.3952 61.0597ZM44.6949 52.2003H29.237C28.8844 52.2003 28.5429 52.3229 28.2708 52.5469C27.9986 52.771 27.8128 53.0826 27.7451 53.4286L20.5734 90.3306C20.531 90.5504 20.5377 90.7769 20.593 90.9938C20.6483 91.2107 20.7508 91.4128 20.8932 91.5855C21.0356 91.7582 21.2144 91.8973 21.4168 91.9929C21.6193 92.0886 21.8403 92.1383 22.0641 92.1386H30.1032C30.4557 92.1383 30.7971 92.0155 31.069 91.7912C31.341 91.567 31.5265 91.2552 31.594 90.9092L33.262 82.3277H38.8959C42.0809 82.3277 44.7627 81.9798 46.866 81.2952C49.0284 80.593 51.0179 79.4019 52.7788 77.7547C54.197 76.4635 55.4003 74.9545 56.3434 73.2845C57.2523 71.6581 57.9063 69.8425 58.2848 67.8913C59.2254 63.0536 58.4609 59.1806 56.0141 56.3806C53.5904 53.6058 49.782 52.1992 44.6949 52.1992V52.2003ZM33.1416 74.9842H38.0318C41.2729 74.9849 43.6865 74.3743 45.2724 73.1522C46.8584 71.9316 47.9295 69.8932 48.4859 67.037C49.0167 64.2939 48.7742 62.3587 47.7585 61.2314C46.7413 60.1041 44.7055 59.5405 41.651 59.5405H36.1429L33.1416 74.9842ZM44.696 53.7163C49.3466 53.7163 52.7384 54.9369 54.8712 57.3781C57.004 59.8194 57.6457 63.2268 56.7962 67.6003C56.4447 69.4028 55.8523 71.05 55.0188 72.5419C54.1839 74.0352 53.0935 75.4013 51.7474 76.6402C50.1433 78.1422 48.3597 79.2123 46.3968 79.8503C44.4346 80.4891 41.9347 80.8081 38.897 80.8073H32.0107L30.1043 90.6183H22.0652L29.238 53.7163H44.696Z" fill="white"/>
<path d="M75.9712 81.5686C75.8592 81.5687 75.7484 81.544 75.647 81.4963C75.5456 81.4486 75.456 81.379 75.3847 81.2925C75.3134 81.206 75.2621 81.1048 75.2345 80.9961C75.207 80.8875 75.2038 80.7741 75.2253 80.6641L78.3972 64.3366C78.7002 62.7834 78.6258 61.67 78.1894 61.1975C77.9214 60.9098 77.1186 60.4275 74.7441 60.4275H68.9953L65.0075 80.955C64.9733 81.1279 64.88 81.2834 64.7438 81.3952C64.6075 81.5069 64.4367 81.5678 64.2605 81.5675H56.287C56.175 81.5676 56.0644 81.5429 55.963 81.4952C55.8617 81.4476 55.7721 81.3781 55.7007 81.2917C55.6293 81.2054 55.5779 81.1044 55.5501 80.9959C55.5223 80.8874 55.5189 80.7741 55.54 80.6641L62.7128 43.762C62.7468 43.5892 62.8397 43.4335 62.9758 43.3215C63.1119 43.2096 63.2826 43.1484 63.4587 43.1484H71.4322C71.5442 43.1484 71.6548 43.173 71.7562 43.2207C71.8576 43.2684 71.9471 43.3379 72.0185 43.4242C72.0899 43.5105 72.1413 43.6115 72.1691 43.7201C72.1969 43.8286 72.2003 43.9419 72.1792 44.0519L70.4489 52.9594H76.6319C81.3427 52.9594 84.5364 53.7884 86.3969 55.498C88.2923 57.2403 88.8851 60.0261 88.1556 63.7809L84.8186 80.955C84.7844 81.1277 84.6913 81.2831 84.5553 81.3948C84.4193 81.5065 84.2487 81.5676 84.0726 81.5675L75.9712 81.5686Z" fill="black"/>
<path d="M71.4324 42.3882H63.4579C63.1052 42.3883 62.7635 42.5109 62.4914 42.7352C62.2192 42.9595 62.0335 43.2714 61.966 43.6176L54.7943 80.5185C54.7517 80.7384 54.7583 80.965 54.8135 81.182C54.8687 81.3991 54.9712 81.6013 55.1136 81.7741C55.2561 81.9469 55.4349 82.0862 55.6374 82.1818C55.8399 82.2775 56.0611 82.3273 56.2851 82.3276H64.2596C64.6123 82.3275 64.9539 82.2048 65.2261 81.9805C65.4982 81.7562 65.684 81.4443 65.7515 81.0982L69.6201 61.1865H74.741C77.1122 61.1865 77.611 61.6929 77.6296 61.7158C77.774 61.869 77.9632 62.5854 77.6504 64.1921L74.4785 80.5185C74.4359 80.7385 74.4425 80.9651 74.4978 81.1823C74.5531 81.3994 74.6557 81.6016 74.7982 81.7745C74.9408 81.9474 75.1198 82.0866 75.3224 82.1822C75.525 82.2778 75.7463 82.3274 75.9704 82.3276H84.0729C84.4253 82.3272 84.7668 82.2044 85.0387 81.9802C85.3106 81.7559 85.4962 81.4441 85.5637 81.0982L88.9007 63.9263C89.6827 59.8947 89.0133 56.8716 86.9101 54.939C84.9019 53.0949 81.5397 52.1991 76.631 52.1991H71.3701L72.9243 44.1983C72.967 43.9783 72.9606 43.7515 72.9054 43.5342C72.8502 43.3169 72.7476 43.1146 72.6051 42.9416C72.4625 42.7686 72.2834 42.6293 72.0807 42.5336C71.878 42.4379 71.6566 42.3883 71.4324 42.3882ZM71.4324 43.9085L69.526 53.7172H76.631C81.1015 53.7172 84.1848 54.4975 85.8808 56.0579C87.5783 57.6168 88.088 60.1434 87.4099 63.6376L84.0718 80.8083H75.9704L79.1433 64.4808C79.5043 62.6236 79.3712 61.3571 78.7441 60.6812C78.117 60.0059 76.7834 59.6683 74.7432 59.6683H68.3677L64.2596 80.8072H56.284L63.4568 43.9052H71.4324V43.9085Z" fill="white"/>
<path d="M100.773 74.2263C103.828 74.2263 106.109 73.6631 107.552 72.5529C108.979 71.4526 109.965 69.5484 110.483 66.8928C110.964 64.4099 110.781 62.6774 109.936 61.7412C109.074 60.7853 107.209 60.3007 104.394 60.3007H99.5123L96.8053 74.2263H100.773ZM84.809 91.3796C84.6968 91.3798 84.586 91.3551 84.4845 91.3073C84.383 91.2595 84.2933 91.1898 84.222 91.1032C84.1506 91.0166 84.0994 90.9152 84.0719 90.8064C84.0445 90.6976 84.0414 90.5841 84.0631 90.474L91.2348 53.5731C91.2688 53.4002 91.3618 53.2445 91.4978 53.1326C91.6339 53.0206 91.8046 52.9595 91.9808 52.9595H107.439C112.297 52.9595 115.913 54.2785 118.186 56.8806C120.471 59.4946 121.176 63.1521 120.283 67.747C119.941 69.5568 119.313 71.3008 118.424 72.9139C117.519 74.516 116.365 75.9634 115.003 77.2013C113.33 78.7676 111.432 79.9051 109.374 80.5734C107.348 81.234 104.745 81.5687 101.64 81.5687H95.3801L93.594 90.7649C93.5603 90.9382 93.4672 91.0943 93.3309 91.2065C93.1946 91.3186 93.0235 91.3798 92.847 91.3796H84.809Z" fill="black"/>
<path d="M100.138 61.0597H104.394C107.792 61.0597 108.973 61.8056 109.373 62.2508C110.04 62.988 110.165 64.5444 109.737 66.7483C109.256 69.2169 108.366 70.968 107.089 71.9502C105.782 72.9564 103.656 73.4661 100.775 73.4661H97.7278L100.138 61.0597ZM107.438 52.2003H91.9801C91.6278 52.2006 91.2865 52.3232 91.0146 52.5473C90.7427 52.7713 90.557 53.0828 90.4893 53.4286L83.3165 90.3306C83.2742 90.5505 83.2809 90.7771 83.3362 90.9941C83.3916 91.2111 83.4942 91.4132 83.6367 91.5859C83.7793 91.7586 83.9582 91.8977 84.1608 91.9933C84.3633 92.0888 84.5845 92.1384 84.8084 92.1386H92.8475C93.1999 92.1383 93.5413 92.0155 93.8133 91.7912C94.0852 91.567 94.2708 91.2552 94.3382 90.9092L96.0062 82.3277H101.639C104.823 82.3277 107.506 81.9798 109.608 81.2952C111.772 80.593 113.761 79.4019 115.523 77.7536C116.941 76.4627 118.144 74.9541 119.087 73.2845C119.997 71.6581 120.648 69.8425 121.028 67.8913C121.969 63.0536 121.205 59.1806 118.757 56.3806C116.334 53.6058 112.526 52.1992 107.437 52.1992L107.438 52.2003ZM95.8848 74.9842H100.774C104.015 74.9849 106.429 74.3743 108.017 73.1522C109.603 71.9316 110.673 69.8932 111.228 67.037C111.761 64.2939 111.519 62.3587 110.501 61.2314C109.483 60.1041 107.447 59.5405 104.394 59.5405H98.8872L95.8848 74.9842ZM107.438 53.7163C112.089 53.7163 115.48 54.9369 117.613 57.3781C119.746 59.8194 120.387 63.2268 119.537 67.6003C119.187 69.4028 118.595 71.05 117.761 72.5419C116.927 74.0352 115.836 75.4013 114.488 76.6402C112.884 78.1422 111.101 79.2123 109.138 79.8503C107.176 80.4891 104.677 80.8081 101.639 80.8073H94.7539L92.8453 90.6183H84.8062L91.979 53.7163H107.438Z" fill="white"/>
<defs>
<radialGradient id="paint0_radial_3597_429" cx="0" cy="0" r="1" gradientUnits="userSpaceOnUse" gradientTransform="translate(42.0284 46.1224) scale(91.9202 91.9202)">
<stop stop-color="#AEB2D5"/>
<stop offset="0.3" stop-color="#AEB2D5"/>
<stop offset="0.75" stop-color="#484C89"/>
<stop offset="1" stop-color="#484C89"/>
</radialGradient>
</defs>
</svg>
