<svg width="61" height="61" viewBox="0 0 61 61" fill="none" xmlns="http://www.w3.org/2000/svg">
<path d="M38.4491 36.2188L33.5119 41.1559L36.2188 43.8438L43.8438 36.2188L36.2188 28.5938L33.5119 31.2816L38.4491 36.2188ZM22.5509 36.2188L27.4881 31.2816L24.7812 28.5938L17.1562 36.2188L24.7812 43.8438L27.4881 41.1559L22.5509 36.2188Z" fill="#F9004D"/>
<path d="M17.1562 17.1562C18.209 17.1562 19.0625 16.3028 19.0625 15.25C19.0625 14.1972 18.209 13.3438 17.1562 13.3438C16.1035 13.3438 15.25 14.1972 15.25 15.25C15.25 16.3028 16.1035 17.1562 17.1562 17.1562Z" fill="#F9004D"/>
<path d="M11.4375 17.1562C12.4903 17.1562 13.3438 16.3028 13.3438 15.25C13.3438 14.1972 12.4903 13.3438 11.4375 13.3438C10.3847 13.3438 9.53125 14.1972 9.53125 15.25C9.53125 16.3028 10.3847 17.1562 11.4375 17.1562Z" fill="#F9004D"/>
<path d="M53.375 7.625H7.625C5.52241 7.625 3.8125 9.33681 3.8125 11.4375V49.5625C3.8125 51.6651 5.52241 53.375 7.625 53.375H53.375C55.4776 53.375 57.1875 51.6651 57.1875 49.5625V11.4375C57.1875 9.33681 55.4776 7.625 53.375 7.625ZM53.375 11.4375V19.0625H7.625V11.4375H53.375ZM7.625 49.5625V22.875H53.375V49.5625H7.625Z" fill="#F9004D"/>
</svg>
