<svg width="65" height="65" viewBox="0 0 65 65" fill="none" xmlns="http://www.w3.org/2000/svg">
<path d="M33.8541 54.1667H9.47913C8.40168 54.1667 7.36837 53.7387 6.6065 52.9768C5.84464 52.215 5.41663 51.1816 5.41663 50.1042V14.8959C5.41663 13.8184 5.84464 12.7851 6.6065 12.0233C7.36837 11.2614 8.40168 10.8334 9.47913 10.8334H55.5208C56.5982 10.8334 57.6315 11.2614 58.3934 12.0233C59.1553 12.7851 59.5833 13.8184 59.5833 14.8959V33.7743" stroke="#F9004D" stroke-width="4" stroke-linecap="round" stroke-linejoin="round"/>
<path d="M5.41663 14.8959C5.41663 13.8184 5.84464 12.7851 6.6065 12.0233C7.36837 11.2614 8.40168 10.8334 9.47913 10.8334H55.5208C56.5982 10.8334 57.6315 11.2614 58.3934 12.0233C59.1553 12.7851 59.5833 13.8184 59.5833 14.8959V27.0834H5.41663V14.8959Z" stroke="#F9004D" stroke-width="4"/>
<path d="M43.3333 47.3959H59.5833M51.4583 39.2709V55.5209" stroke="#F9004D" stroke-width="4" stroke-linecap="round" stroke-linejoin="round"/>
<path d="M10.8333 18.9584C10.8333 17.4626 12.0459 16.2501 13.5417 16.2501C15.0374 16.2501 16.25 17.4626 16.25 18.9584C16.25 20.4542 15.0374 21.6667 13.5417 21.6667C12.0459 21.6667 10.8333 20.4542 10.8333 18.9584Z" fill="#F9004D"/>
<path d="M18.9583 18.9584C18.9583 17.4626 20.1709 16.2501 21.6667 16.2501C23.1624 16.2501 24.375 17.4626 24.375 18.9584C24.375 20.4542 23.1624 21.6667 21.6667 21.6667C20.1709 21.6667 18.9583 20.4542 18.9583 18.9584Z" fill="#F9004D"/>
</svg>
