<svg width="50" height="50" viewBox="0 0 50 50" fill="none" xmlns="http://www.w3.org/2000/svg">
<path d="M34.0833 29.1666C34.25 27.7916 34.375 26.4166 34.375 25C34.375 23.5833 34.25 22.2083 34.0833 20.8333H41.125C41.4583 22.1666 41.6666 23.5625 41.6666 25C41.6666 26.4375 41.4583 27.8333 41.125 29.1666M30.3958 40.75C31.6458 38.4375 32.6041 35.9375 33.2708 33.3333H39.4166C37.3982 36.8089 34.196 39.4416 30.3958 40.75ZM29.875 29.1666H20.125C19.9166 27.7916 19.7916 26.4166 19.7916 25C19.7916 23.5833 19.9166 22.1875 20.125 20.8333H29.875C30.0625 22.1875 30.2083 23.5833 30.2083 25C30.2083 26.4166 30.0625 27.7916 29.875 29.1666ZM25 41.5833C23.2708 39.0833 21.875 36.3125 21.0208 33.3333H28.9791C28.125 36.3125 26.7291 39.0833 25 41.5833ZM16.6666 16.6666H10.5833C12.5805 13.1813 15.7805 10.5442 19.5833 9.24996C18.3333 11.5625 17.3958 14.0625 16.6666 16.6666ZM10.5833 33.3333H16.6666C17.3958 35.9375 18.3333 38.4375 19.5833 40.75C15.788 39.4423 12.5922 36.8087 10.5833 33.3333ZM8.87496 29.1666C8.54163 27.8333 8.33329 26.4375 8.33329 25C8.33329 23.5625 8.54163 22.1666 8.87496 20.8333H15.9166C15.75 22.2083 15.625 23.5833 15.625 25C15.625 26.4166 15.75 27.7916 15.9166 29.1666M25 8.39579C26.7291 10.8958 28.125 13.6875 28.9791 16.6666H21.0208C21.875 13.6875 23.2708 10.8958 25 8.39579ZM39.4166 16.6666H33.2708C32.6178 14.0866 31.6523 11.596 30.3958 9.24996C34.2291 10.5625 37.4166 13.2083 39.4166 16.6666ZM25 4.16663C13.4791 4.16663 4.16663 13.5416 4.16663 25C4.16663 30.5253 6.36156 35.8243 10.2686 39.7314C12.2031 41.6659 14.4998 43.2005 17.0274 44.2475C19.555 45.2944 22.2641 45.8333 25 45.8333C30.5253 45.8333 35.8243 43.6384 39.7314 39.7314C43.6384 35.8243 45.8333 30.5253 45.8333 25C45.8333 22.2641 45.2944 19.555 44.2475 17.0274C43.2005 14.4998 41.6659 12.2031 39.7314 10.2686C37.7968 8.33401 35.5002 6.79944 32.9725 5.75247C30.4449 4.7055 27.7358 4.16663 25 4.16663Z" fill="#F9004D"/>
</svg>
