<svg width="63" height="63" viewBox="0 0 63 63" fill="none" xmlns="http://www.w3.org/2000/svg">
<path d="M18.375 42C19.1188 42 19.7426 41.748 20.2466 41.244C20.7506 40.74 21.0018 40.117 21 39.375C20.9983 38.633 20.7463 38.01 20.244 37.506C19.7418 37.002 19.1188 36.75 18.375 36.75C17.6313 36.75 17.0083 37.002 16.506 37.506C16.0038 38.01 15.7518 38.633 15.75 39.375C15.7483 40.117 16.0003 40.7409 16.506 41.2466C17.0118 41.7524 17.6348 42.0035 18.375 42ZM15.75 34.125H21V21H15.75V34.125ZM26.25 39.375H47.25V34.125H26.25V39.375ZM26.25 28.875H47.25V23.625H26.25V28.875ZM10.5 52.5C9.05625 52.5 7.82075 51.9864 6.7935 50.9591C5.76625 49.9319 5.25175 48.6955 5.25 47.25V15.75C5.25 14.3063 5.7645 13.0707 6.7935 12.0435C7.8225 11.0162 9.058 10.5018 10.5 10.5H52.5C53.9438 10.5 55.1801 11.0145 56.2091 12.0435C57.2381 13.0725 57.7518 14.308 57.75 15.75V47.25C57.75 48.6938 57.2364 49.9301 56.2091 50.9591C55.1819 51.9881 53.9455 52.5018 52.5 52.5H10.5Z" fill="#F9004D"/>
</svg>
