<svg width="57" height="57" viewBox="0 0 57 57" fill="none" xmlns="http://www.w3.org/2000/svg">
<path d="M10.9868 21.0853C11.9339 18.828 13.3136 16.7778 15.0481 15.0504C16.7762 13.3156 18.8272 11.936 21.0853 10.9891C25.7391 9.05571 30.9648 9.02076 35.6441 10.8917C35.691 12.4295 36.3354 13.8884 37.4404 14.9589C38.5454 16.0293 40.0241 16.627 41.5626 16.625C44.8543 16.625 47.5001 13.9792 47.5001 10.6875C47.5001 7.39575 44.8543 4.75 41.5626 4.75C39.9262 4.75 38.4466 5.4055 37.3754 6.47187C31.6018 4.161 24.9708 4.19662 19.2423 6.612C16.4161 7.7995 13.8748 9.5095 11.6898 11.6921C9.4836 13.899 7.73488 16.5198 6.54398 19.4041C5.35308 22.2884 4.74345 25.3795 4.75005 28.5H9.50005C9.50005 25.9207 10.0012 23.427 10.9868 21.0853ZM46.0109 35.9147C45.0586 38.1758 43.6906 40.2088 41.9497 41.9496C40.2088 43.6905 38.1758 45.0585 35.9124 46.0109C31.2586 47.9443 26.0329 47.9792 21.3537 46.1082C21.3067 44.5709 20.6627 43.1123 19.5582 42.042C18.4537 40.9716 16.9756 40.3737 15.4376 40.375C12.1458 40.375 9.50005 43.0207 9.50005 46.3125C9.50005 49.6043 12.1458 52.25 15.4376 52.25C17.0739 52.25 18.5536 51.5945 19.6247 50.5281C22.4456 51.6651 25.4586 52.2496 28.5001 52.25C33.1708 52.2599 37.7403 50.8897 41.6349 48.3114C45.5295 45.733 48.5755 42.0614 50.3904 37.7577C51.6237 34.8274 52.2561 31.6793 52.2501 28.5H47.5001C47.5056 31.0464 46.9992 33.5679 46.0109 35.9147Z" fill="#F9004D"/>
<path d="M28.4999 17.7222C22.5577 17.7222 17.7222 22.5577 17.7222 28.4999C17.7222 34.4422 22.5577 39.2777 28.4999 39.2777C34.4422 39.2777 39.2777 34.4422 39.2777 28.4999C39.2777 22.5577 34.4422 17.7222 28.4999 17.7222Z" fill="#F9004D"/>
</svg>
