<svg width="127" height="127" viewBox="0 0 127 127" fill="none" xmlns="http://www.w3.org/2000/svg">
<path d="M23.4236 107.954L14.5059 7.9375H112.494L103.565 107.938L63.4405 119.062L23.4236 107.954Z" fill="#E44F26"/>
<path d="M63.5 110.562L95.9247 101.572L103.553 16.1172H63.5V110.562Z" fill="#F1662A"/>
<path d="M63.5 53.2091H47.2678L46.1486 40.648H63.5V28.3806H32.7422L33.0359 31.6747L36.0482 65.4765H63.5V53.2091ZM63.5 85.0663L63.4444 85.0821L49.784 81.3952L48.9109 71.6122H36.5958L38.3143 90.8686L63.4444 97.8456L63.5 97.8298V85.0663Z" fill="#EBEBEB"/>
<path d="M63.4565 53.2091V65.4765H78.5616L77.1408 81.3872L63.4565 85.0782V97.8417L88.6065 90.8686L88.7891 88.7969L91.6704 56.5032L91.972 53.2091H63.4565ZM63.4565 28.3806V40.648H93.0872L93.3333 37.8937L93.8929 31.6747L94.1866 28.3806H63.4565Z" fill="white"/>
</svg>
