<svg width="115" height="115" viewBox="0 0 115 115" fill="none" xmlns="http://www.w3.org/2000/svg">
<path d="M1.26514 1.26489H113.735V113.736H1.26514V1.26489Z" fill="#F0DB4F"/>
<path d="M104.53 86.9113C103.706 81.7803 100.361 77.4705 90.45 73.4518C87.0072 71.8696 83.1691 70.7367 82.0253 68.1276C81.6193 66.6093 81.5653 65.7539 81.8223 64.8348C82.5599 61.852 86.1204 60.9222 88.9424 61.7775C90.76 62.3866 92.4805 63.7873 93.5182 66.0217C98.3715 62.8789 98.3616 62.8996 101.751 60.7398C100.51 58.8162 99.8477 57.9286 99.0355 57.1056C96.1164 53.8452 92.1391 52.166 85.7781 52.2945L82.4647 52.723C79.2896 53.5253 76.2637 55.1919 74.4893 57.4263C69.1651 63.4674 70.6835 74.0402 77.1621 78.3914C83.5446 83.1818 92.9207 84.2716 94.1183 88.7512C95.2836 94.2353 90.0879 96.0106 84.9237 95.3799C81.1179 94.5884 79.0012 92.6541 76.7129 89.1367C72.501 91.5741 72.501 91.5741 68.1705 94.0646C69.1975 96.3098 70.2765 97.3259 71.9979 99.2711C80.1449 107.535 100.532 107.129 104.189 94.6207C104.337 94.1913 105.322 91.3271 104.53 86.9113ZM62.4071 52.9566H51.8873L51.8441 80.1541C51.8441 85.9382 52.1433 91.2408 51.2027 92.8661C49.6636 96.0627 45.6755 95.6665 43.8579 95.0466C42.008 94.1374 41.0674 92.8445 39.9776 91.0171C39.6784 90.4924 39.4538 90.0863 39.3783 90.0549L30.8252 95.2928C32.2474 98.2118 34.3426 100.745 37.0262 102.391C41.035 104.797 46.423 105.535 52.058 104.241C55.7254 103.173 58.8897 100.96 60.5464 97.5919C62.9416 93.1761 62.4277 87.8313 62.4062 81.9195C62.4601 72.2748 62.4071 62.6319 62.4071 52.9566Z" fill="#323330"/>
</svg>
