<svg width="176" height="208" viewBox="0 0 176 208" fill="none" xmlns="http://www.w3.org/2000/svg">
<path d="M176 104C176.007 106.716 175.31 109.388 173.978 111.756C172.647 114.123 170.725 116.105 168.4 117.51L24.32 205.65C21.8909 207.138 19.1087 207.95 16.2608 208.002C13.4129 208.055 10.6025 207.347 8.12 205.95C5.6611 204.575 3.61276 202.57 2.18564 200.141C0.758514 197.712 0.00410858 194.947 0 192.13V15.8701C0.00410858 13.053 0.758514 10.2877 2.18564 7.85882C3.61276 5.4299 5.6611 3.42493 8.12 2.05011C10.6025 0.653594 13.4129 -0.0548781 16.2608 -0.00213935C19.1087 0.0505994 21.8909 0.862638 24.32 2.35011L168.4 90.4901C170.725 91.8948 172.647 93.8773 173.978 96.2447C175.31 98.6121 176.007 101.284 176 104Z" fill="white"/>
</svg>
