<svg width="128" height="128" viewBox="0 0 128 128" fill="none" xmlns="http://www.w3.org/2000/svg">
<g clip-path="url(#clip0_3597_444)">
<mask id="mask0_3597_444" style="mask-type:alpha" maskUnits="userSpaceOnUse" x="-1" y="0" width="129" height="128">
<path fill-rule="evenodd" clip-rule="evenodd" d="M90.7669 127.126C91.7855 127.523 92.8748 127.706 93.9672 127.664C95.0597 127.622 96.1318 127.356 97.1169 126.882L123.47 114.201C124.827 113.548 125.972 112.524 126.774 111.249C127.575 109.974 128 108.498 128 106.992V21.0089C128 19.5025 127.575 18.0267 126.774 16.7511C125.972 15.4756 124.827 14.4523 123.47 13.7989L97.1169 1.1199C95.6278 0.403404 93.9528 0.1675 92.3237 0.444836C90.6946 0.722171 89.192 1.49903 88.0239 2.6679L37.5739 48.6939L15.5999 32.0129C14.6085 31.2606 13.3851 30.879 12.1418 30.9342C10.8985 30.9893 9.71376 31.4778 8.79287 32.3149L1.74487 38.7259C1.19562 39.2255 0.756684 39.8342 0.456144 40.5131C0.155605 41.192 7.80072e-05 41.9261 -0.000486738 42.6686C-0.00105148 43.411 0.153358 44.1454 0.452864 44.8248C0.752371 45.5041 1.19038 46.1135 1.73887 46.6139L20.7959 63.9999L1.73987 81.3869C1.19168 81.8874 0.753932 82.4967 0.454612 83.176C0.155291 83.8552 0.000981983 84.5894 0.00154667 85.3317C0.00211136 86.074 0.157538 86.808 0.457891 87.4868C0.758244 88.1656 1.19692 88.7743 1.74587 89.2739L8.79387 95.6849C9.71464 96.5221 10.8994 97.0108 12.1426 97.0661C13.3859 97.1215 14.6094 96.74 15.6009 95.9879L37.5749 79.3079L88.0249 125.333C88.8057 126.113 89.7386 126.724 90.7669 127.126ZM96.0189 34.9429L57.7399 63.9999L96.0199 93.0579L96.0189 34.9429Z" fill="white"/>
</mask>
<g mask="url(#mask0_3597_444)">
<path d="M123.471 13.82L97.0967 1.11998C95.6071 0.402565 93.9312 0.166162 92.3013 0.443518C90.6714 0.720873 89.1681 1.49826 87.9997 2.66798L1.66165 81.387C1.11305 81.8872 0.674936 82.4965 0.375351 83.1757C0.0757655 83.855 -0.0786882 84.5894 -0.0781235 85.3318C-0.0775587 86.0742 0.0780122 86.8083 0.378631 87.4872C0.679249 88.166 1.11829 88.7746 1.66765 89.274L8.71966 95.685C9.6407 96.5232 10.8262 97.0125 12.0704 97.0679C13.3145 97.1232 14.5388 96.7412 15.5307 95.988L119.502 17.113C122.99 14.467 128 16.955 128 21.333V21.027C128 19.521 127.575 18.0457 126.773 16.7706C125.972 15.4954 124.827 14.4734 123.471 13.82Z" fill="#0065A9"/>
<g filter="url(#filter0_d_3597_444)">
<path d="M123.471 114.181L97.0967 126.879C95.6073 127.597 93.9316 127.833 92.3017 127.556C90.6718 127.279 89.1683 126.502 87.9997 125.333L1.66165 46.6129C1.11305 46.1127 0.674936 45.5035 0.375351 44.8242C0.0757655 44.1449 -0.0786882 43.4105 -0.0781235 42.6681C-0.0775587 41.9257 0.0780122 41.1916 0.378631 40.5127C0.679249 39.8339 1.11829 39.2253 1.66765 38.7259L8.71966 32.3149C9.6407 31.4767 10.8262 30.9874 12.0704 30.932C13.3145 30.8767 14.5388 31.2588 15.5307 32.0119L119.502 110.886C122.99 113.533 128 111.045 128 106.667V106.973C128 108.479 127.575 109.954 126.773 111.229C125.972 112.504 124.827 113.528 123.471 114.181Z" fill="#007ACC"/>
</g>
<g filter="url(#filter1_d_3597_444)">
<path d="M97.0975 126.882C95.6074 127.598 93.9317 127.833 92.3019 127.556C90.6721 127.279 89.1687 126.502 87.9995 125.333C90.9515 128.285 95.9995 126.194 95.9995 122.019V5.97989C95.9995 1.80489 90.9515 -0.286109 87.9995 2.66689C89.1687 1.49808 90.6721 0.72126 92.3019 0.443778C93.9317 0.166296 95.6074 0.401851 97.0975 1.11789L123.467 13.7999C124.824 14.4529 125.97 15.476 126.772 16.7516C127.574 18.0271 128 19.5032 128 21.0099V106.992C128 108.499 127.574 109.975 126.772 111.25C125.97 112.526 124.824 113.549 123.467 114.202L97.0975 126.882Z" fill="#1F9CF0"/>
</g>
<path opacity="0.25" fill-rule="evenodd" clip-rule="evenodd" d="M90.6898 127.126C91.7082 127.523 92.7974 127.706 93.8896 127.664C94.9818 127.622 96.0538 127.356 97.0387 126.882L123.392 114.201C124.749 113.548 125.894 112.524 126.696 111.249C127.497 109.973 127.922 108.497 127.922 106.991V21.0089C127.922 19.5025 127.497 18.0267 126.696 16.7511C125.894 15.4756 124.749 14.4523 123.392 13.7989L97.0387 1.1199C95.5496 0.403404 93.8746 0.1675 92.2456 0.444836C90.6165 0.722171 89.1139 1.49903 87.9457 2.6679L37.4957 48.6939L15.5217 32.0139C14.5303 31.2616 13.307 30.88 12.0637 30.9352C10.8204 30.9903 9.63564 31.4788 8.71475 32.3159L1.66675 38.7269C1.11763 39.2265 0.678822 39.8353 0.378371 40.5142C0.0779198 41.193 -0.0775587 41.9272 -0.0781235 42.6696C-0.0786882 43.412 0.0756733 44.1463 0.375091 44.8257C0.674509 45.505 1.11239 46.1144 1.66075 46.6149L20.7177 63.9999L1.66175 81.3859C1.11326 81.8863 0.675249 82.4957 0.375743 83.175C0.0762366 83.8544 -0.078173 84.5888 -0.0776083 85.3312C-0.0770435 86.0737 0.0784831 86.8078 0.379023 87.4867C0.679562 88.1656 1.1185 88.7743 1.66775 89.2739L8.71575 95.6849C9.63652 96.5221 10.8212 97.0108 12.0645 97.0661C13.3078 97.1215 14.5312 96.74 15.5227 95.9879L37.4977 79.3069L87.9477 125.333C88.7283 126.113 89.6618 126.724 90.6898 127.126ZM95.9417 34.9419L57.6617 63.9999L95.9417 93.0569V34.9419Z" fill="url(#paint0_linear_3597_444)"/>
</g>
</g>
<defs>
<filter id="filter0_d_3597_444" x="-8.41212" y="22.5928" width="144.746" height="113.41" filterUnits="userSpaceOnUse" color-interpolation-filters="sRGB">
<feFlood flood-opacity="0" result="BackgroundImageFix"/>
<feColorMatrix in="SourceAlpha" type="matrix" values="0 0 0 0 0 0 0 0 0 0 0 0 0 0 0 0 0 0 127 0" result="hardAlpha"/>
<feOffset/>
<feGaussianBlur stdDeviation="4.167"/>
<feColorMatrix type="matrix" values="0 0 0 0 0 0 0 0 0 0 0 0 0 0 0 0 0 0 0.25 0"/>
<feBlend mode="overlay" in2="BackgroundImageFix" result="effect1_dropShadow_3597_444"/>
<feBlend mode="normal" in="SourceGraphic" in2="effect1_dropShadow_3597_444" result="shape"/>
</filter>
<filter id="filter1_d_3597_444" x="79.6655" y="-8.00343" width="56.668" height="144.007" filterUnits="userSpaceOnUse" color-interpolation-filters="sRGB">
<feFlood flood-opacity="0" result="BackgroundImageFix"/>
<feColorMatrix in="SourceAlpha" type="matrix" values="0 0 0 0 0 0 0 0 0 0 0 0 0 0 0 0 0 0 127 0" result="hardAlpha"/>
<feOffset/>
<feGaussianBlur stdDeviation="4.167"/>
<feColorMatrix type="matrix" values="0 0 0 0 0 0 0 0 0 0 0 0 0 0 0 0 0 0 0.25 0"/>
<feBlend mode="overlay" in2="BackgroundImageFix" result="effect1_dropShadow_3597_444"/>
<feBlend mode="normal" in="SourceGraphic" in2="effect1_dropShadow_3597_444" result="shape"/>
</filter>
<linearGradient id="paint0_linear_3597_444" x1="63.9217" y1="0.329898" x2="63.9217" y2="127.67" gradientUnits="userSpaceOnUse">
<stop stop-color="white"/>
<stop offset="1" stop-color="white" stop-opacity="0"/>
</linearGradient>
<clipPath id="clip0_3597_444">
<rect width="128" height="128" fill="white"/>
</clipPath>
</defs>
</svg>
