<svg width="120" height="120" viewBox="0 0 120 120" fill="none" xmlns="http://www.w3.org/2000/svg">
<g clip-path="url(#clip0_3597_438)">
<path d="M91.875 0H28.125C12.592 0 0 12.592 0 28.125V91.875C0 107.408 12.592 120 28.125 120H91.875C107.408 120 120 107.408 120 91.875V28.125C120 12.592 107.408 0 91.875 0Z" fill="#0073AA"/>
<path d="M19.7881 59.9972C19.7881 75.9136 29.0379 89.6686 42.4508 96.1871L23.2695 43.6327C20.9707 48.7819 19.7844 54.3582 19.7881 59.9972ZM87.1447 57.968C87.1447 52.9988 85.3597 49.5572 83.8287 46.8783C81.7901 43.5661 79.8795 40.7611 79.8795 37.4489C79.8795 33.7524 82.6831 30.3117 86.6318 30.3117C86.8104 30.3117 86.9792 30.3338 87.1531 30.3436C79.999 23.7896 70.4679 19.7878 59.9989 19.7878C45.9514 19.7878 33.5918 26.9953 26.4022 37.9125C27.3453 37.9407 28.2345 37.9608 28.9897 37.9608C33.1958 37.9608 39.7062 37.4499 39.7062 37.4499C41.8737 37.3224 42.1297 40.5061 39.964 40.7625C39.964 40.7625 37.7858 41.0189 35.3618 41.146L50.0047 84.7013L58.8045 58.3093L52.5397 41.1446C50.3745 41.0175 48.3233 40.7611 48.3233 40.7611C46.1562 40.6341 46.4103 37.321 48.5773 37.4489C48.5773 37.4489 55.2176 37.9589 59.1687 37.9589C63.3743 37.9589 69.8853 37.4489 69.8853 37.4489C72.0547 37.321 72.3092 40.5047 70.1431 40.7611C70.1431 40.7611 67.9601 41.0175 65.5409 41.1446L80.0726 84.3699L84.0833 70.9674C85.8218 65.4052 87.1447 61.4105 87.1447 57.968Z" fill="white"/>
<path d="M60.7043 63.5147L48.6396 98.5725C52.3283 99.6588 56.1536 100.211 59.9989 100.211C64.5468 100.212 69.0619 99.4415 73.3517 97.9313C73.2401 97.7554 73.1445 97.57 73.0657 97.3772L60.7043 63.5147ZM95.2822 40.7053C95.4647 42.0758 95.5553 43.4571 95.5531 44.8397C95.5531 48.9202 94.7909 53.5074 92.4954 59.243L80.2128 94.755C92.1673 87.7838 100.208 74.8327 100.208 59.9981C100.209 53.0067 98.4232 46.4325 95.2822 40.7053Z" fill="white"/>
<path d="M59.9991 13.125C34.1531 13.125 13.125 34.1517 13.125 59.9972C13.125 85.8459 34.1531 106.872 59.9991 106.872C85.8436 106.872 106.875 85.8459 106.875 59.9972C106.874 34.1517 85.8436 13.125 59.9991 13.125ZM59.9991 104.723C35.3381 104.723 15.2742 84.6591 15.2742 59.9972C15.2742 35.3367 35.3377 15.2742 59.9991 15.2742C84.6586 15.2742 104.721 35.3367 104.721 59.9972C104.721 84.6591 84.6586 104.723 59.9991 104.723Z" fill="white"/>
</g>
<defs>
<clipPath id="clip0_3597_438">
<rect width="120" height="120" fill="white"/>
</clipPath>
</defs>
</svg>
