<svg xmlns="http://www.w3.org/2000/svg" version="1.1" xmlns:xlink="http://www.w3.org/1999/xlink" xmlns:svgjs="http://svgjs.dev/svgjs" width="88" height="44"><svg width="88" height="44" viewBox="0 0 88 44" fill="none" xmlns="http://www.w3.org/2000/svg">
<path d="M46.2344 44.0001V0.600098H68.4304C74.1344 0.600098 78.3917 1.6541 81.2024 3.7621C84.013 5.82877 85.4184 8.55677 85.4184 11.9461C85.4184 14.1781 84.819 16.1414 83.6204 17.8361C82.463 19.4894 80.8097 20.8121 78.6604 21.8041C76.5524 22.7548 74.031 23.2301 71.0964 23.2301L72.3364 20.2541C75.395 20.2541 78.061 20.7294 80.3344 21.6801C82.6077 22.5894 84.3644 23.9328 85.6044 25.7101C86.8857 27.4461 87.5264 29.5748 87.5264 32.0961C87.5264 35.8574 85.997 38.7921 82.9384 40.9001C79.921 42.9668 75.4984 44.0001 69.6704 44.0001H46.2344ZM58.3864 35.1341H68.6784C70.7864 35.1341 72.3777 34.7828 73.4524 34.0801C74.5684 33.3361 75.1264 32.2201 75.1264 30.7321C75.1264 29.2441 74.5684 28.1488 73.4524 27.4461C72.3777 26.7021 70.7864 26.3301 68.6784 26.3301H57.5184V17.8361H66.8184C68.885 17.8361 70.435 17.4848 71.4684 16.7821C72.5017 16.0794 73.0184 15.0254 73.0184 13.6201C73.0184 12.2148 72.5017 11.1814 71.4684 10.5201C70.435 9.81743 68.885 9.4661 66.8184 9.4661H58.3864V35.1341Z" fill="#F9004D"></path>
<path d="M0.339844 44.0001V0.600098H20.1798C24.1478 0.600098 27.5578 1.24076 30.4098 2.5221C33.3032 3.80343 35.5352 5.66343 37.1058 8.1021C38.6765 10.4994 39.4618 13.3514 39.4618 16.6581C39.4618 19.9234 38.6765 22.7548 37.1058 25.1521C35.5352 27.5081 33.3032 29.3268 30.4098 30.6081C27.5578 31.8481 24.1478 32.4681 20.1798 32.4681H7.15984L12.6158 27.3221V44.0001H0.339844ZM27.1858 44.0001L16.3978 28.1901H29.4798L40.3298 44.0001H27.1858ZM12.6158 28.6241L7.15984 22.9821H19.4358C21.9985 22.9821 23.8998 22.4241 25.1398 21.3081C26.4212 20.1921 27.0618 18.6421 27.0618 16.6581C27.0618 14.6328 26.4212 13.0621 25.1398 11.9461C23.8998 10.8301 21.9985 10.2721 19.4358 10.2721H7.15984L12.6158 4.6301V28.6241Z" fill="#F9004D"></path>
</svg><style>@media (prefers-color-scheme: light) { :root { filter: none; } }
@media (prefers-color-scheme: dark) { :root { filter: none; } }
</style></svg>